<svg width="519" height="499" viewBox="0 0 519 499" fill="none" xmlns="http://www.w3.org/2000/svg">
<g clip-path="url(#clip0_7_2370)">
<path d="M358.998 147.867V147.908C358.978 149.26 358.958 150.611 358.918 151.943C358.358 174.082 354.561 195.402 348.066 215.493C347.506 217.254 346.926 219.036 346.307 220.777C344.828 224.995 343.229 229.153 341.51 233.249C339.912 237.079 338.213 240.827 336.414 244.534C327.381 263.273 315.849 280.497 302.299 295.775C262.448 340.524 205.05 368.644 141.257 368.644H58.2374C56.3988 368.644 54.5801 368.685 52.7614 368.746C34.0751 369.463 16.2681 373.743 0 380.993V368.213C0.0399708 367.558 0.0399708 366.903 0.0399708 366.247C0.0599562 365.551 0.099927 364.937 0.099927 364.261C0.099927 363.319 0.139898 362.377 0.199854 361.455C0.25981 360.185 0.319766 358.895 0.399708 357.605V357.564C1.51889 337.923 5.15623 319 10.932 301.038C11.7714 300.813 12.6108 300.649 13.4502 300.465C27.8596 297.372 42.7887 295.775 58.0775 295.775H141.117C183.726 295.775 222.078 277.138 248.838 247.401C251.816 244.124 254.634 240.704 257.292 237.161C261.209 231.959 264.806 226.491 268.044 220.777H222.178V147.888H358.998V147.867Z" fill="white"/>
<path d="M217.721 0C157.585 0 103.145 24.9654 63.7534 65.3318C41.2498 88.3925 23.6227 116.512 12.6907 147.847C12.0712 149.587 11.4916 151.349 10.932 153.11C4.05703 174.43 0.239825 197.163 0 220.756V223.091C0 226.429 0.099927 229.747 0.199854 233.003C0.399708 237.878 0.77943 242.731 1.29905 247.524C1.89861 253.34 2.738 259.095 3.77724 264.768C5.81575 275.868 8.67366 286.641 12.251 297.065V297.127C12.6308 298.233 13.0305 299.359 13.4502 300.465C14.8092 304.254 16.2881 308.022 17.847 311.709C26.6405 332.578 38.4719 351.768 52.7614 368.746C54.0405 370.302 55.3995 371.839 56.7385 373.354C61.3152 378.474 66.1117 383.389 71.128 388.059V371.286C71.128 370.405 71.128 369.504 71.148 368.644C71.6077 342.142 78.7225 317.259 90.9535 295.775C91.4731 294.833 91.9928 293.911 92.5524 292.99C93.2319 291.884 93.8914 290.798 94.5909 289.713C94.9906 289.078 95.3703 288.443 95.79 287.849C96.1697 287.276 96.5294 286.702 96.9092 286.129C97.3289 285.514 97.7486 284.921 98.1682 284.286C98.8477 283.323 99.5073 282.34 100.247 281.377C100.806 280.599 101.406 279.8 102.005 279.022C112.778 264.727 126.088 252.48 141.177 242.977C151.669 236.341 163.001 231.037 175.012 227.289C188.562 223.029 202.972 220.756 217.881 220.756H300.9C317.088 220.756 332.857 218.954 348.066 215.493C392.693 205.396 432.184 181.291 461.902 147.867C481.048 126.342 496.157 100.906 505.91 72.9095C513.904 50.0946 518.381 25.5798 518.641 0L217.721 0ZM427.647 72.9095C402.306 117.72 354.941 147.867 300.76 147.867H217.721C167.398 147.867 121.032 165.398 84.1385 194.787C80.0815 198.003 76.1443 201.382 72.3271 204.884C73.6262 193.763 76.1244 183.011 79.6818 172.791C81.8602 166.525 84.4383 160.442 87.3761 154.585C88.5153 152.311 89.7144 150.079 90.9535 147.867C90.9935 147.867 90.9935 147.867 90.9935 147.867C97.3688 136.521 105.183 126.138 114.217 116.88C140.737 89.7033 177.39 72.9095 217.881 72.9095H427.667C427.667 72.9095 427.647 72.9095 427.647 72.93" fill="white"/>
<path d="M217.721 147.99C216.961 147.99 216.182 147.99 215.403 148.01C190.481 148.277 166.558 152.823 144.295 161.015C113.697 172.218 86.2769 190.282 63.7534 213.322C61.4151 215.759 59.0968 218.217 56.8584 220.777C37.3527 242.649 22.0639 268.536 12.271 297.127C11.8314 298.437 11.3717 299.728 10.952 301.059C5.17622 319.02 1.53888 337.944 0.419693 357.584H0.399708C0.319766 358.895 0.25981 360.185 0.199854 361.475C0.139898 362.397 0.119912 363.339 0.0799416 364.281C0.0799416 364.937 0.0599562 365.572 0.0199854 366.247C0.0199854 366.903 0.0199854 367.558 0 368.234V499C0.25981 499 0.499635 499 0.759445 498.98C39.8908 498.468 71.128 465.372 71.128 425.312V371.306C71.128 370.425 71.128 369.524 71.148 368.664C71.5877 342.142 78.7225 317.259 90.9535 295.795C91.4531 294.853 91.9928 293.932 92.5523 293.01C93.2318 291.884 93.8914 290.798 94.5909 289.713C94.9906 289.078 95.3703 288.464 95.79 287.849C96.1497 287.276 96.5095 286.702 96.9092 286.129C97.3289 285.535 97.7485 284.921 98.1682 284.286C98.8278 283.323 99.5073 282.34 100.227 281.357C100.786 280.579 101.406 279.78 101.985 279.002C102.845 277.875 103.744 276.769 104.624 275.663C105.183 274.988 105.723 274.291 106.282 273.615C106.562 273.267 106.882 272.899 107.182 272.53C107.282 272.407 107.382 272.305 107.481 272.182C109.6 269.724 111.758 267.308 114.017 265.014C122.151 256.678 131.164 249.346 140.977 243.243C140.977 243.202 140.997 243.202 140.997 243.202L141.017 243.182C141.037 243.059 141.097 243.018 141.137 242.916C145.334 235.297 149.93 227.863 154.907 220.695C160.463 212.584 166.558 204.822 173.073 197.388C178.889 190.773 184.945 184.527 191.1 178.772C203.471 167.241 216.722 157.063 230.771 148.338C226.474 148.072 222.078 147.928 217.661 147.928" fill="white"/>
</g>
<defs>
<clipPath id="clip0_7_2370">
<rect width="518.641" height="499" fill="white"/>
</clipPath>
</defs>
</svg>
