<svg width="260" height="244" viewBox="0 0 260 244" fill="none" xmlns="http://www.w3.org/2000/svg">
<g clip-path="url(#clip0_1_257)">
<path d="M179.63 72.2V72.22C179.62 72.88 179.61 73.54 179.59 74.19C179.31 85 177.41 95.41 174.16 105.22C173.88 106.08 173.59 106.95 173.28 107.8C172.54 109.86 171.74 111.89 170.88 113.89C170.08 115.76 169.23 117.59 168.33 119.4C163.81 128.55 158.04 136.96 151.26 144.42C131.32 166.27 102.6 180 70.68 180H29.14C28.22 180 27.31 180.02 26.4 180.05C17.05 180.4 8.14 182.49 0 186.03V179.79C0.02 179.47 0.02 179.15 0.02 178.83C0.03 178.49 0.05 178.19 0.05 177.86C0.05 177.4 0.07 176.94 0.1 176.49C0.13 175.87 0.16 175.24 0.2 174.61V174.59C0.76 165 2.58 155.76 5.47 146.99C5.89 146.88 6.31 146.8 6.73 146.71C13.94 145.2 21.41 144.42 29.06 144.42H70.61C91.93 144.42 111.12 135.32 124.51 120.8C126 119.2 127.41 117.53 128.74 115.8C130.7 113.26 132.5 110.59 134.12 107.8H111.17V72.21H179.63V72.2Z" fill="#82D875"/>
<path d="M108.94 0C78.85 0 51.61 12.19 31.9 31.9C20.64 43.16 11.82 56.89 6.35 72.19C6.04 73.04 5.75 73.9 5.47 74.76C2.03 85.17 0.12 96.27 0 107.79V108.93C0 110.56 0.05 112.18 0.1 113.77C0.2 116.15 0.39 118.52 0.65 120.86C0.95 123.7 1.37 126.51 1.89 129.28C2.91 134.7 4.34 139.96 6.13 145.05V145.08C6.32 145.62 6.52 146.17 6.73 146.71C7.41 148.56 8.15 150.4 8.93 152.2C13.33 162.39 19.25 171.76 26.4 180.05C27.04 180.81 27.72 181.56 28.39 182.3C30.68 184.8 33.08 187.2 35.59 189.48V181.29C35.59 180.86 35.59 180.42 35.6 180C35.83 167.06 39.39 154.91 45.51 144.42C45.77 143.96 46.03 143.51 46.31 143.06C46.65 142.52 46.98 141.99 47.33 141.46C47.53 141.15 47.72 140.84 47.93 140.55C48.12 140.27 48.3 139.99 48.49 139.71C48.7 139.41 48.91 139.12 49.12 138.81C49.46 138.34 49.79 137.86 50.16 137.39C50.44 137.01 50.74 136.62 51.04 136.24C56.43 129.26 63.09 123.28 70.64 118.64C75.89 115.4 81.56 112.81 87.57 110.98C94.35 108.9 101.56 107.79 109.02 107.79H150.56C158.66 107.79 166.55 106.91 174.16 105.22C196.49 100.29 216.25 88.52 231.12 72.2C240.7 61.69 248.26 49.27 253.14 35.6C257.14 24.46 259.38 12.49 259.51 0L108.94 0ZM213.98 35.6C201.3 57.48 177.6 72.2 150.49 72.2H108.94C83.76 72.2 60.56 80.76 42.1 95.11C40.07 96.68 38.1 98.33 36.19 100.04C36.84 94.61 38.09 89.36 39.87 84.37C40.96 81.31 42.25 78.34 43.72 75.48C44.29 74.37 44.89 73.28 45.51 72.2C45.53 72.2 45.53 72.2 45.53 72.2C48.72 66.66 52.63 61.59 57.15 57.07C70.42 43.8 88.76 35.6 109.02 35.6H213.99C213.99 35.6 213.98 35.6 213.98 35.61" fill="#82D875"/>
<path d="M108.94 72.26C108.56 72.26 108.17 72.26 107.78 72.27C95.31 72.4 83.34 74.62 72.2 78.62C56.89 84.09 43.17 92.91 31.9 104.16C30.73 105.35 29.57 106.55 28.45 107.8C18.69 118.48 11.04 131.12 6.14 145.08C5.92 145.72 5.69 146.35 5.48 147C2.59 155.77 0.77 165.01 0.21 174.6H0.2C0.16 175.24 0.13 175.87 0.1 176.5C0.07 176.95 0.06 177.41 0.04 177.87C0.04 178.19 0.03 178.5 0.01 178.83C0.01 179.15 0.01 179.47 0 179.8V243.65C0.13 243.65 0.25 243.65 0.38 243.64C19.96 243.39 35.59 227.23 35.59 207.67V181.3C35.59 180.87 35.59 180.43 35.6 180.01C35.82 167.06 39.39 154.91 45.51 144.43C45.76 143.97 46.03 143.52 46.31 143.07C46.65 142.52 46.98 141.99 47.33 141.46C47.53 141.15 47.72 140.85 47.93 140.55C48.11 140.27 48.29 139.99 48.49 139.71C48.7 139.42 48.91 139.12 49.12 138.81C49.45 138.34 49.79 137.86 50.15 137.38C50.43 137 50.74 136.61 51.03 136.23C51.46 135.68 51.91 135.14 52.35 134.6C52.63 134.27 52.9 133.93 53.18 133.6C53.32 133.43 53.48 133.25 53.63 133.07C53.68 133.01 53.73 132.96 53.78 132.9C54.84 131.7 55.92 130.52 57.05 129.4C61.12 125.33 65.63 121.75 70.54 118.77C70.54 118.75 70.55 118.75 70.55 118.75L70.56 118.74C70.57 118.68 70.6 118.66 70.62 118.61C72.72 114.89 75.02 111.26 77.51 107.76C80.29 103.8 83.34 100.01 86.6 96.38C89.51 93.15 92.54 90.1 95.62 87.29C101.81 81.66 108.44 76.69 115.47 72.43C113.32 72.3 111.12 72.23 108.91 72.23" fill="#82D875"/>
</g>
<defs>
<clipPath id="clip0_1_257">
<rect width="259.51" height="243.65" fill="white"/>
</clipPath>
</defs>
</svg>
