<svg width="258" height="70" viewBox="0 0 258 70" fill="none" xmlns="http://www.w3.org/2000/svg">
<path d="M0 0H22.1212C22.1212 1.00924 21.334 1.82725 20.3629 1.82725H1.95246V14.0585H18.5535V15.8857H1.95246V32.887H0V0Z" fill="#83D874"/>
<path d="M23.6338 1.77773C23.6338 0.913681 24.3187 0.205444 25.1467 0.205444C25.9747 0.205444 26.7107 0.917222 26.7107 1.77773C26.7107 2.69135 25.9781 3.39959 25.1467 3.39959C24.3153 3.39959 23.6338 2.68781 23.6338 1.77773ZM24.2164 8.62638H26.0735V32.8835H24.2164V8.62638Z" fill="#83D874"/>
<path d="M30.7114 8.62638H32.5685V13.4991C34.0337 10.2518 37.4036 8.12 41.2608 8.12C46.5356 8.12 49.7556 11.0131 49.7556 17.3554V32.8835C48.7299 32.8835 47.8985 32.0194 47.8985 30.9535V17.6068C47.8985 12.4827 45.5065 9.99328 40.9167 9.99328C35.8873 9.99328 32.5685 14.611 32.5685 18.6196V32.8799H30.7114V8.62638Z" fill="#83D874"/>
<path d="M73.9755 14.2072V10.5527C73.9755 9.48683 74.8069 8.62278 75.8325 8.62278V32.8799H73.9755V27.044C72.4149 30.6985 68.6053 33.3863 64.3086 33.3863C57.6198 33.3863 52.7847 27.9045 52.7847 20.7513C52.7847 13.5981 57.6198 8.11639 64.3086 8.11639C68.5576 8.11639 72.2684 10.6023 73.9755 14.2072ZM64.404 9.99676C58.935 9.99676 54.7371 14.5649 54.7371 20.7549C54.7371 26.9449 58.7886 31.513 64.4551 31.513C69.7776 31.513 73.9755 26.743 73.9755 20.7549C73.9755 14.7667 69.8252 9.99676 64.404 9.99676Z" fill="#83D874"/>
<path d="M80.5142 8.62638H82.3712V13.4991C83.8364 10.2518 87.2064 8.12 91.0636 8.12C96.3383 8.12 99.5584 11.0131 99.5584 17.3554V32.8835C98.5327 32.8835 97.7013 32.0194 97.7013 30.9535V17.6068C97.7013 12.4827 95.3092 9.99328 90.7194 9.99328C85.69 9.99328 82.3712 14.611 82.3712 18.6196V32.8799H80.5142V8.62638Z" fill="#83D874"/>
<path d="M102.588 21.0206C102.458 14.0126 107.958 8.14131 114.701 8.12006C117.942 8.10944 120.886 9.32761 123.094 11.4204L121.874 12.8405C120.068 11.0628 117.577 9.99689 114.745 9.99689C108.956 9.99689 104.496 14.6606 104.54 20.8471C104.581 26.7254 109.239 31.5662 114.895 31.5131C117.355 31.4919 119.567 30.6491 121.294 29.2397C122.034 28.6341 123.09 28.7156 123.731 29.4309C121.533 31.8672 118.361 33.39 114.745 33.39C107.995 33.39 102.721 27.9967 102.591 21.0171" fill="#83D874"/>
<path d="M125.973 1.77773C125.973 0.913681 126.658 0.205444 127.486 0.205444C128.314 0.205444 129.05 0.917222 129.05 1.77773C129.05 2.69135 128.317 3.39959 127.486 3.39959C126.654 3.39959 125.973 2.68781 125.973 1.77773ZM126.559 8.62638H128.416V32.8835H126.559V8.62638Z" fill="#83D874"/>
<path d="M131.881 20.7549C131.881 13.6513 136.863 8.12 143.307 8.12C149.75 8.12 154.439 13.6513 154.439 20.7054C154.439 21.0595 154.391 21.4171 154.391 21.5163H133.834C134.175 27.4017 138.424 31.6157 143.698 31.6157C146.114 31.6157 148.431 30.8508 150.264 29.5052C150.966 28.9882 151.941 29.1617 152.442 29.8912C150.145 32.0726 147.021 33.3934 143.702 33.3934C137.159 33.3934 131.885 28.0639 131.885 20.7585M152.537 19.944C152.292 14.2604 148.288 9.89767 143.259 9.89767C138.229 9.89767 134.127 14.1613 133.834 19.944H152.534H152.537Z" fill="#83D874"/>
<path d="M157.956 8.62638H159.809V14.1577C161.666 10.0995 165.23 8.12 169.428 8.12C169.428 9.21422 168.655 10.1208 167.619 10.3014C162.842 11.1335 159.809 15.2449 159.809 20.0432V32.8835H157.956V8.62638Z" fill="#83D874"/>
<path d="M191.014 14.2072V10.5527C191.014 9.48683 191.845 8.62278 192.868 8.62278V32.8799H191.014V27.044C189.45 30.6985 185.644 33.3863 181.347 33.3863C174.658 33.3863 169.823 27.9045 169.823 20.7513C169.823 13.5981 174.658 8.11639 181.347 8.11639C185.596 8.11639 189.307 10.6023 191.014 14.2072ZM181.443 9.99676C175.974 9.99676 171.776 14.5649 171.776 20.7549C171.776 26.9449 175.827 31.513 181.494 31.513C186.816 31.513 191.014 26.743 191.014 20.7549C191.014 14.7667 186.864 9.99676 181.443 9.99676Z" fill="#83D874"/>
<path d="M52.6686 41.5947H61.5587L60.9521 44.7959C61.913 43.5352 64.9934 41.067 68.6325 41.067C72.9259 41.067 74.8476 42.958 75.6552 45.8441C77.3725 43.1138 80.8584 41.067 84.6985 41.067C90.6104 41.067 92.2256 44.6365 92.2256 47.9971C92.2256 50.2564 91.8201 52.5652 91.3669 54.9803L88.8897 68.4227H79.6964L82.1225 55.508C82.2758 54.6156 82.528 53.617 82.528 52.6184C82.528 51.255 81.9726 49.9943 80.1019 49.9943C77.8291 49.9943 75.9073 52.0411 75.1509 56.1383L72.8782 68.4227H63.6849L66.0087 55.508C66.162 54.6156 66.4143 53.5143 66.4143 52.5157C66.4143 51.1488 65.9576 49.9943 64.0904 49.9943C61.8176 49.9943 59.8992 52.0411 59.1393 56.1383L56.8666 68.4227H47.6733L52.6754 41.5947H52.6686Z" fill="#83D874"/>
<path d="M92.71 56.7156C92.71 48.7869 98.1652 41.0706 106.905 41.0706C114.535 41.0706 119.182 45.9008 119.182 53.617C119.182 55.0866 119.029 56.5562 118.678 58.132H101.501C101.501 58.132 101.45 58.2914 101.45 58.5534C101.45 60.4975 103.672 61.652 106.653 61.652C106.752 61.652 106.851 61.652 106.953 61.6484C110.241 61.5528 113.27 63.4828 114.582 66.6203L114.637 66.7477C112.211 68.2173 109.584 69.0566 105.444 69.0566C98.9285 69.0566 92.7134 65.1719 92.7134 56.7191M110.848 52.7247C110.848 52.7247 110.899 52.5157 110.899 52.3032C110.899 49.5199 108.473 48.6806 107.11 48.6806C105.747 48.6806 102.915 48.9427 101.856 52.7247H110.848Z" fill="#83D874"/>
<path d="M123.158 41.5947H132.048L131.442 44.7959C133.514 42.1187 137.098 41.067 139.678 41.067C145.59 41.067 147.205 44.6365 147.205 47.9971C147.205 50.2564 146.803 52.5121 146.346 54.9803L143.869 68.4227H134.676L137.102 55.508C137.255 54.6687 137.507 53.5638 137.507 52.6184C137.507 51.255 137.003 49.9943 135.081 49.9943C132.556 49.9943 130.382 52.0411 129.677 55.8762L127.353 68.4227H118.16L123.162 41.5947H123.158Z" fill="#83D874"/>
<path d="M150.098 62.7001C150.098 61.914 150.299 60.6002 150.452 59.7078L152.374 49.1551H148.23L149.645 41.5947H153.788L154.647 36.7114L164.194 34.3494L162.882 41.5947H168.692L167.278 49.1551H161.468L159.802 58.0789C159.751 58.2878 159.55 59.3396 159.55 59.7078C159.55 60.6533 160.306 60.8623 160.862 60.8623C161.973 60.8623 163.237 60.2319 163.843 59.9699L164.903 67.1089C162.882 68.2633 159.952 69.053 157.175 69.053C153.488 69.053 150.101 67.4241 150.101 62.7001" fill="#83D874"/>
<path d="M166.396 56.7156C166.396 48.7869 171.851 41.0706 180.591 41.0706C188.22 41.0706 192.868 45.9008 192.868 53.617C192.868 55.0866 192.718 56.5562 192.364 58.132H175.187C175.187 58.132 175.136 58.2914 175.136 58.5534C175.136 60.4975 177.357 61.652 180.339 61.652C180.438 61.652 180.536 61.652 180.639 61.6484C183.927 61.5528 186.956 63.4828 188.268 66.6203L188.322 66.7477C185.896 68.2173 183.269 69.0566 179.129 69.0566C172.614 69.0566 166.399 65.1719 166.399 56.7191M184.533 52.7247C184.533 52.7247 184.584 52.5157 184.584 52.3032C184.584 49.5199 182.158 48.6806 180.795 48.6806C179.432 48.6806 176.604 48.9427 175.541 52.7247H184.533Z" fill="#83D874"/>
<path d="M224.861 0.878298C218.421 0.878298 212.594 3.59084 208.375 7.97129C205.966 10.4784 204.079 13.5309 202.91 16.934C202.845 17.1252 202.78 17.3129 202.722 17.5077C201.986 19.8201 201.578 22.2918 201.554 24.8521V25.1071C201.554 25.4683 201.564 25.8295 201.574 26.1836C201.676 28.6128 202.123 30.95 202.866 33.1385V33.1456C202.906 33.266 202.951 33.3864 202.995 33.5103C203.966 36.2512 205.404 38.7513 207.207 40.922C207.343 41.092 207.486 41.2584 207.633 41.4213C208.123 41.9773 208.638 42.512 209.173 43.0184V41.1947C209.173 41.0991 209.173 41.0034 209.173 40.9078C209.22 38.0289 209.984 35.3269 211.292 32.9933C211.347 32.8906 211.405 32.7914 211.463 32.6923C211.534 32.5719 211.606 32.4515 211.681 32.3346C211.721 32.2673 211.766 32.1965 211.81 32.1328C211.848 32.069 211.888 32.0088 211.929 31.9451C211.974 31.8814 212.018 31.8141 212.066 31.7468C212.137 31.6406 212.209 31.5343 212.287 31.4281C212.348 31.3431 212.413 31.2581 212.475 31.1731C213.63 29.6221 215.054 28.2906 216.669 27.2601C219.061 25.7268 221.872 24.845 224.881 24.845H233.771C235.502 24.845 237.192 24.6503 238.821 24.2714C243.598 23.1771 247.827 20.5602 251.009 16.9305C253.061 14.5933 254.679 11.8312 255.722 8.7893C256.577 6.31047 257.057 3.6475 257.081 0.871216H224.861V0.878298ZM247.34 8.79284C244.627 13.6584 239.553 16.934 233.754 16.934H224.861C218.881 16.934 213.422 19.2783 209.292 23.124C209.551 20.8895 210.246 18.7967 211.289 16.934C211.97 15.7017 212.809 14.5756 213.776 13.5699C216.615 10.6201 220.54 8.79284 224.878 8.79284H247.343" fill="#83D874"/>
<path d="M225.337 16.9338V24.8483H230.247C227.532 29.7174 222.461 32.9966 216.658 32.9966H207.765C206.129 32.9966 204.531 33.1701 202.988 33.5065C202.899 33.5242 202.807 33.5455 202.719 33.5703C202.098 35.5215 201.71 37.5753 201.591 39.7071C201.581 39.8488 201.577 39.9904 201.57 40.1321C201.563 40.2312 201.56 40.3339 201.557 40.4366C201.557 40.5074 201.557 40.5783 201.55 40.6526C201.55 40.7234 201.55 40.7943 201.55 40.8686V42.2568C203.291 41.4706 205.196 41.0032 207.199 40.9253C207.394 40.9182 207.588 40.9147 207.785 40.9147H216.675C223.507 40.9147 229.651 37.8622 233.917 33.0001C235.965 30.6594 237.583 27.8973 238.63 24.8554C238.694 24.6642 238.759 24.473 238.817 24.2817C239.556 21.9693 239.965 19.5011 239.986 16.9444H225.337V16.9338Z" fill="#83D874"/>
<path d="M225.314 17C225.232 17 225.15 17 225.065 17C222.397 17.0283 219.835 17.5241 217.449 18.4129C214.175 19.6276 211.238 21.5894 208.825 24.093C208.573 24.3586 208.324 24.6242 208.086 24.9004C205.997 27.2765 204.361 30.0882 203.308 33.1903C203.261 33.3319 203.213 33.4736 203.169 33.6152C202.549 35.5664 202.16 37.6203 202.041 39.7521C202.031 39.8937 202.027 40.0354 202.02 40.177C202.014 40.2762 202.01 40.3789 202.007 40.4816C202.007 40.5524 202.007 40.6197 202 40.6976C202 40.7684 202 40.8392 202 40.9136V55.1138C202.027 55.1138 202.055 55.1138 202.082 55.1138C206.27 55.0571 209.616 51.4628 209.616 47.1142V41.25C209.616 41.1544 209.616 41.0588 209.616 40.9632C209.663 38.0842 210.427 35.3823 211.738 33.0486C211.793 32.9459 211.848 32.8468 211.909 32.7476C211.98 32.6272 212.052 32.5068 212.127 32.39C212.168 32.3227 212.209 32.2519 212.256 32.1881C212.294 32.1244 212.335 32.0642 212.376 32.0005C212.42 31.9367 212.464 31.8694 212.512 31.8021C212.584 31.6959 212.655 31.5897 212.733 31.4834C212.795 31.3984 212.86 31.3135 212.921 31.2285C213.013 31.1045 213.108 30.9877 213.204 30.8673C213.262 30.7929 213.32 30.7185 213.381 30.6442C213.412 30.6088 213.446 30.5663 213.476 30.5273C213.487 30.5132 213.497 30.5025 213.51 30.4884C213.735 30.2228 213.967 29.9607 214.209 29.7093C215.081 28.8063 216.045 28.0095 217.095 27.3473C217.095 27.3332 217.105 27.3296 217.109 27.319C217.558 26.4939 218.053 25.683 218.584 24.9075C219.18 24.0292 219.831 23.1864 220.53 22.3755C221.153 21.6567 221.801 20.9803 222.458 20.3535C223.784 19.0999 225.201 17.9951 226.707 17.0496C226.247 17.0212 225.777 17.0071 225.304 17.0071" fill="#83D874"/>
<g style="mix-blend-mode:color-burn" opacity="0.1">
<mask id="mask0_7_2195" style="mask-type:luminance" maskUnits="userSpaceOnUse" x="216" y="27" width="1" height="1">
<path d="M216.796 27.2H216.648V27.2948H216.796V27.2Z" fill="white"/>
</mask>
<g mask="url(#mask0_7_2195)">
<path d="M216.648 27.2948C216.648 27.2948 216.648 27.2913 216.652 27.2878C216.7 27.2527 216.748 27.2246 216.796 27.2C216.748 27.2316 216.696 27.2632 216.648 27.2948Z" fill="#83D874"/>
</g>
</g>
<g style="mix-blend-mode:color-burn" opacity="0.1">
<mask id="mask1_7_2195" style="mask-type:luminance" maskUnits="userSpaceOnUse" x="216" y="43" width="1" height="1">
<path d="M216.796 43.2731H216.648V43.368H216.796V43.2731Z" fill="white"/>
</mask>
<g mask="url(#mask1_7_2195)">
<path d="M216.648 43.368C216.648 43.368 216.648 43.3645 216.652 43.361C216.7 43.3259 216.748 43.2977 216.796 43.2731C216.748 43.3048 216.696 43.3364 216.648 43.368Z" fill="#83D874"/>
</g>
</g>
</svg>
