<svg width="350" height="87" viewBox="0 0 350 87" fill="none" xmlns="http://www.w3.org/2000/svg">
<g clip-path="url(#clip0_7_2226)">
<path d="M71.7038 52.4067H83.8088L82.9844 56.4417C84.2895 54.8529 88.4877 51.7454 93.4375 51.7454C99.2846 51.7454 101.898 54.1272 102.999 57.7642C105.339 54.3233 110.084 51.7454 115.311 51.7454C123.358 51.7454 125.557 56.2427 125.557 60.4766C125.557 63.3207 125.007 66.232 124.389 69.275L121.018 86.2078H108.5L111.8 69.9363C112.007 68.8127 112.351 67.5546 112.351 66.2993C112.351 64.5788 111.594 62.9928 109.05 62.9928C105.956 62.9928 103.343 65.5735 102.309 70.7321L99.2147 86.2106H86.696L89.8599 69.9391C90.0667 68.8155 90.4105 67.4257 90.4105 66.1676C90.4105 64.4471 89.7929 62.9928 87.2466 62.9928C84.1526 62.9928 81.5393 65.5735 80.508 70.7321L77.414 86.2106H64.8953L71.7038 52.4095V52.4067Z" fill="#00505C"/>
<path d="M126.219 71.455C126.219 61.4657 133.648 51.7426 145.546 51.7426C155.932 51.7426 162.26 57.8286 162.26 67.5517C162.26 69.4039 162.053 71.256 161.572 73.2399H138.187C138.187 73.2399 138.117 73.4388 138.117 73.7695C138.117 76.2156 141.144 77.6727 145.202 77.6727C145.336 77.6727 145.47 77.6727 145.61 77.6671C150.088 77.5494 154.213 79.9788 155.996 83.9297L156.069 84.0894C152.768 85.9415 149.191 87.0007 143.55 87.0007C134.679 87.0007 126.219 82.1055 126.219 71.455ZM150.91 66.4281C150.91 66.4281 150.979 66.1647 150.979 65.8985C150.979 62.3931 147.679 61.334 145.82 61.334C143.961 61.334 140.113 61.6646 138.668 66.4281H150.91Z" fill="#00505C"/>
<path d="M167.67 52.4067H179.775L178.95 56.4417C181.771 53.068 186.653 51.7454 190.161 51.7454C198.208 51.7454 200.407 56.2427 200.407 60.4766C200.407 63.3207 199.857 66.1648 199.239 69.275L195.868 86.2078H183.35L186.65 69.9363C186.857 68.8771 187.201 67.4901 187.201 66.2993C187.201 64.5788 186.514 62.9928 183.9 62.9928C180.462 62.9928 177.502 65.5735 176.541 70.4015L173.377 86.2106H160.861L167.67 52.4095V52.4067Z" fill="#00505C"/>
<path d="M204.349 78.9982C204.349 78.0062 204.623 76.353 204.83 75.2266L207.443 61.9309H201.803L203.729 52.4067H209.369L210.537 46.2534L223.537 43.2777L221.748 52.4067H229.658L227.732 61.9309H219.822L217.553 73.1755C217.483 73.4389 217.209 74.7615 217.209 75.2266C217.209 76.4175 218.24 76.6809 218.998 76.6809C220.51 76.6809 222.232 75.8879 223.056 75.5573L224.501 84.5546C221.751 86.0089 217.762 87.0036 213.978 87.0036C208.958 87.0036 204.349 84.9525 204.349 78.9982Z" fill="#00505C"/>
<path d="M226.537 71.455C226.537 61.4657 233.966 51.7426 245.865 51.7426C256.251 51.7426 262.576 57.8286 262.576 67.5517C262.576 69.4039 262.369 71.256 261.888 73.2399H238.505C238.505 73.2399 238.436 73.4388 238.436 73.7695C238.436 76.2156 241.463 77.6727 245.521 77.6727C245.655 77.6727 245.792 77.6727 245.929 77.6671C250.407 77.5494 254.532 79.9788 256.315 83.9297L256.388 84.0894C253.087 85.9415 249.509 87.0007 243.869 87.0007C234.998 87.0007 226.537 82.1055 226.537 71.455ZM251.228 66.4281C251.228 66.4281 251.298 66.1647 251.298 65.8985C251.298 62.3931 247.997 61.334 246.138 61.334C244.28 61.334 240.431 61.6646 238.986 66.4281H251.228Z" fill="#00505C"/>
<g style="mix-blend-mode:multiply" opacity="0.05">
<mask id="mask0_7_2226" style="mask-type:luminance" maskUnits="userSpaceOnUse" x="306" y="21" width="21" height="14">
<path d="M326.728 21.3321H306.783V34.95H326.728V21.3321Z" fill="white"/>
</mask>
<g mask="url(#mask0_7_2226)">
<path d="M326.728 21.3321V21.3377C326.725 21.5226 326.723 21.7075 326.717 21.8897C326.635 24.9187 326.082 27.8356 325.135 30.5844C325.053 30.8254 324.969 31.0692 324.878 31.3073C324.663 31.8846 324.43 32.4534 324.179 33.0138C323.946 33.5378 323.698 34.0505 323.436 34.5577C321.735 34.8183 319.998 34.95 318.259 34.95H310.67C311.104 34.5017 311.515 34.0337 311.902 33.549C312.473 32.8373 312.998 32.0891 313.47 31.3073H306.783V22.1783H318.239C320.243 22.1783 322.204 21.8953 324.089 21.3349H326.728V21.3321Z" fill="black"/>
</g>
</g>
<path d="M306.131 21.3488C306.02 21.3488 305.906 21.3488 305.793 21.3516C302.16 21.388 298.672 22.0101 295.427 23.1309C290.966 24.6636 286.969 27.135 283.686 30.2873C283.345 30.6208 283.007 30.957 282.681 31.3073C279.837 34.2999 277.609 37.8417 276.181 41.7533C276.117 41.9326 276.05 42.1092 275.989 42.2913C275.147 44.7487 274.617 47.3378 274.454 50.025C274.442 50.2043 274.433 50.3808 274.424 50.5574C274.416 50.6834 274.413 50.8123 274.407 50.9412C274.407 51.0309 274.404 51.1178 274.398 51.2102C274.398 51.2999 274.398 51.3896 274.395 51.482V69.3731C274.433 69.3731 274.468 69.3731 274.506 69.3703C280.21 69.3002 284.764 64.7721 284.764 59.2913V51.9023C284.764 51.7818 284.764 51.6586 284.767 51.5409C284.831 47.9122 285.871 44.5077 287.654 41.5712C287.727 41.4423 287.805 41.3162 287.887 41.1901C287.986 41.036 288.082 40.8875 288.184 40.739C288.243 40.6521 288.298 40.5681 288.359 40.484C288.411 40.4055 288.464 40.3271 288.522 40.2486C288.583 40.1674 288.645 40.0833 288.706 39.9964C288.802 39.8647 288.901 39.7302 289.006 39.5957C289.087 39.4893 289.178 39.38 289.262 39.2735C289.387 39.1194 289.519 38.9681 289.647 38.8168C289.728 38.7243 289.807 38.629 289.889 38.5366C289.929 38.4889 289.976 38.4385 290.02 38.3881C290.034 38.3713 290.049 38.3572 290.063 38.3404C290.372 38.0042 290.687 37.6735 291.016 37.3597C292.202 36.2193 293.516 35.2161 294.946 34.3811C294.946 34.3755 294.949 34.3755 294.949 34.3755L294.952 34.3727C294.955 34.3559 294.964 34.3503 294.969 34.3363C295.581 33.2939 296.251 32.2768 296.977 31.2961C297.787 30.1865 298.675 29.1245 299.625 28.1074C300.473 27.2023 301.356 26.3477 302.253 25.5603C304.056 23.9827 305.988 22.5901 308.036 21.3964C307.41 21.36 306.769 21.3404 306.125 21.3404" fill="#82D875"/>
<g style="mix-blend-mode:color-burn" opacity="0.1">
<mask id="mask1_7_2226" style="mask-type:luminance" maskUnits="userSpaceOnUse" x="294" y="34" width="2" height="1">
<path d="M295.151 34.2691H294.949V34.3898H295.151V34.2691Z" fill="white"/>
</mask>
<g mask="url(#mask1_7_2226)">
<path d="M294.949 34.3867C294.949 34.3867 294.949 34.3811 294.955 34.3783C295.019 34.3361 295.086 34.2996 295.151 34.2659C295.084 34.3052 295.016 34.3446 294.949 34.3867Z" fill="#82D875"/>
</g>
</g>
<g style="mix-blend-mode:color-burn" opacity="0.1">
<mask id="mask2_7_2226" style="mask-type:luminance" maskUnits="userSpaceOnUse" x="294" y="54" width="2" height="1">
<path d="M295.151 54.5194H294.949V54.6402H295.151V54.5194Z" fill="white"/>
</mask>
<g mask="url(#mask2_7_2226)">
<path d="M294.949 54.6369C294.949 54.6369 294.949 54.6313 294.955 54.6285C295.019 54.5864 295.086 54.5499 295.151 54.5162C295.084 54.5555 295.016 54.5948 294.949 54.6369Z" fill="#82D875"/>
</g>
</g>
<path d="M0 -1.52588e-05H30.1155C30.1155 1.27211 29.0433 2.30327 27.7236 2.30327H2.6599V17.7117H25.2618V20.015H2.6599V41.4339H0V0.00278953V-1.52588e-05Z" fill="#00505C"/>
<path d="M32.1753 2.23606C32.1753 1.14887 33.1076 0.255013 34.235 0.255013C35.3625 0.255013 36.3618 1.14887 36.3618 2.23606C36.3618 3.3877 35.3654 4.28155 34.235 4.28155C33.1047 4.28155 32.1753 3.3877 32.1753 2.23606ZM32.9736 10.8692H35.4994V41.4311H32.9736V10.8692Z" fill="#00505C"/>
<path d="M41.8127 10.8692H44.3386V17.0085C46.3343 12.9175 50.9199 10.2304 56.1727 10.2304C63.3513 10.2304 67.7388 13.8758 67.7388 21.8673V41.4311C66.3433 41.4311 65.2129 40.344 65.2129 39.0018V22.1867C65.2129 15.728 61.9558 12.5953 55.7066 12.5953C48.8602 12.5953 44.3386 18.4123 44.3386 23.4644V41.4311H41.8127V10.8692Z" fill="#00505C"/>
<path d="M100.712 17.9023V13.2985C100.712 11.9564 101.843 10.8692 103.238 10.8692V41.4311H100.712V34.0785C98.5854 38.6823 93.3996 42.07 87.5496 42.07C78.4424 42.07 71.8611 35.1657 71.8611 26.1487C71.8611 17.1317 78.4424 10.2275 87.5496 10.2275C93.3326 10.2275 98.3844 13.3602 100.712 17.8995M87.6807 12.5952C80.2341 12.5952 74.5181 18.3506 74.5181 26.1487C74.5181 33.9468 80.036 39.7051 87.7477 39.7051C94.9932 39.7051 100.712 33.6947 100.712 26.1487C100.712 18.6028 95.0602 12.5952 87.6836 12.5952" fill="#00505C"/>
<path d="M109.618 10.8692H112.144V17.0085C114.14 12.9175 118.726 10.2304 123.978 10.2304C131.157 10.2304 135.544 13.8758 135.544 21.8673V41.4311C134.149 41.4311 133.019 40.344 133.019 39.0018V22.1867C133.019 15.728 129.761 12.5953 123.512 12.5953C116.666 12.5953 112.144 18.4123 112.144 23.4644V41.4311H109.618V10.8692Z" fill="#00505C"/>
<path d="M139.667 26.4822C139.489 17.6529 146.977 10.2555 156.159 10.2275C160.57 10.2135 164.579 11.7518 167.586 14.3829L165.925 16.1734C163.466 13.9346 160.075 12.5924 156.221 12.5924C148.337 12.5924 142.266 18.4683 142.327 26.2636C142.385 33.6694 148.725 39.7667 156.425 39.7022C159.772 39.6742 162.784 38.615 165.136 36.8385C166.141 36.0792 167.583 36.1772 168.451 37.0823C165.459 40.1506 161.138 42.07 156.218 42.07C147.026 42.07 139.845 35.2722 139.667 26.4822Z" fill="#00505C"/>
<path d="M171.507 2.23606C171.507 1.14887 172.439 0.255013 173.567 0.255013C174.694 0.255013 175.693 1.14887 175.693 2.23606C175.693 3.3877 174.697 4.28155 173.567 4.28155C172.436 4.28155 171.507 3.3877 171.507 2.23606ZM172.302 10.8692H174.828V41.4311H172.302V10.8692Z" fill="#00505C"/>
<path d="M179.548 26.1487C179.548 17.1962 186.327 10.2275 195.105 10.2275C203.883 10.2275 210.261 17.1962 210.261 26.0843C210.261 26.5326 210.194 26.9781 210.194 27.107H182.208C182.674 34.5241 188.457 39.8311 195.635 39.8311C198.922 39.8311 202.077 38.8644 204.574 37.172C205.532 36.5219 206.855 36.7405 207.537 37.6596C204.413 40.4084 200.157 42.07 195.638 42.07C186.729 42.07 179.551 35.3563 179.551 26.1487M207.668 25.126C207.336 17.964 201.885 12.4663 195.038 12.4663C188.192 12.4663 182.607 17.8379 182.208 25.126H207.668Z" fill="#00505C"/>
<path d="M215.047 10.8692H217.573V17.8379C220.099 12.7214 224.953 10.2304 230.669 10.2304C230.669 11.609 229.617 12.755 228.204 12.982C221.698 14.0299 217.573 19.2109 217.573 25.2577V41.434H215.047V10.872V10.8692Z" fill="#00505C"/>
<path d="M260.053 17.9023V13.2985C260.053 11.9564 261.183 10.8692 262.579 10.8692V41.4311H260.053V34.0785C257.926 38.6823 252.74 42.07 246.89 42.07C237.783 42.07 231.202 35.1657 231.202 26.1487C231.202 17.1317 237.783 10.2275 246.89 10.2275C252.673 10.2275 257.725 13.3602 260.053 17.8995M247.021 12.5952C239.575 12.5952 233.859 18.3506 233.859 26.1487C233.859 33.9468 239.377 39.7051 247.088 39.7051C254.334 39.7051 260.05 33.6947 260.05 26.1487C260.05 18.6028 254.398 12.5952 247.021 12.5952Z" fill="#00505C"/>
<g style="mix-blend-mode:multiply" opacity="0.05">
<mask id="mask3_7_2226" style="mask-type:luminance" maskUnits="userSpaceOnUse" x="274" y="22" width="14" height="22">
<path d="M287.133 22.2511H274.585V43.7484H287.133V22.2511Z" fill="white"/>
</mask>
<g mask="url(#mask3_7_2226)">
<path d="M284.939 29.1329C285.495 28.6538 286.069 28.1914 286.661 27.7515C286.553 28.2615 286.463 28.7854 286.395 29.3122L286.328 29.8334L285.924 30.1837C285.504 30.5451 285.099 30.915 284.72 31.2793C284.336 31.6519 284.03 31.9602 283.762 32.246C280.997 35.1545 278.911 38.5085 277.556 42.2185L276.997 43.7484C276.77 43.244 276.554 42.7284 276.356 42.2101C276.295 42.0587 276.237 41.9046 276.181 41.7533V41.7449C275.66 40.3187 275.243 38.8448 274.946 37.3261C274.794 36.5499 274.672 35.7625 274.585 34.9668C275.928 32.6439 277.559 30.4723 279.447 28.4828C279.776 28.1298 280.149 27.7515 280.58 27.334L280.688 27.2303C282.063 25.919 283.567 24.6973 285.163 23.6017L287.133 22.2511C286.704 23.0525 286.328 23.8847 286.011 24.7421C285.492 26.1403 285.128 27.6114 284.939 29.1329Z" fill="black"/>
</g>
</g>
<path d="M326.728 21.332V21.3376C326.725 21.5226 326.722 21.7075 326.716 21.8897C326.635 24.9187 326.081 27.8356 325.134 30.5844C325.053 30.8254 324.968 31.0692 324.878 31.3073C324.662 31.8846 324.429 32.4534 324.179 33.0138C323.946 33.5378 323.698 34.0505 323.436 34.5577C322.119 37.1216 320.438 39.4781 318.463 41.5684C312.654 47.6909 304.286 51.5381 294.987 51.5381H282.885C282.617 51.5381 282.352 51.5437 282.087 51.5521C279.363 51.6502 276.767 52.2358 274.395 53.2277V51.4793C274.401 51.3896 274.401 51.2999 274.401 51.2103C274.404 51.115 274.41 51.0309 274.41 50.9385C274.41 50.8096 274.416 50.6807 274.424 50.5546C274.433 50.3809 274.442 50.2043 274.454 50.0278V50.0222C274.617 47.335 275.147 44.7459 275.989 42.2886C276.111 42.2577 276.234 42.2353 276.356 42.2101C278.457 41.787 280.633 41.5684 282.862 41.5684H294.967C301.178 41.5684 306.769 39.0186 310.67 34.95C311.104 34.5017 311.514 34.0337 311.902 33.549C312.473 32.8372 312.997 32.0891 313.469 31.3073H306.783V21.3348H326.728V21.332Z" fill="#82D875"/>
<path d="M306.133 1.10126C297.367 1.10126 289.431 4.51695 283.689 10.0398C280.408 13.1949 277.839 17.0421 276.245 21.3292C276.155 21.5674 276.07 21.8084 275.989 22.0494C274.987 24.9663 274.43 28.0766 274.395 31.3045V31.624C274.395 32.0807 274.41 32.5346 274.424 32.9801C274.454 33.647 274.509 34.3111 274.585 34.9668C274.672 35.7626 274.794 36.55 274.946 37.3261C275.243 38.8448 275.66 40.3187 276.181 41.745V41.7534C276.237 41.9047 276.295 42.0588 276.356 42.2101C276.554 42.7285 276.77 43.2441 276.997 43.7484C278.279 46.6037 280.004 49.2292 282.087 51.5521C282.273 51.7651 282.471 51.9752 282.666 52.1826C283.333 52.8831 284.033 53.5556 284.764 54.1945V51.8996C284.764 51.7791 284.764 51.6558 284.767 51.5381C284.834 47.9123 285.871 44.5078 287.654 41.5684C287.73 41.4395 287.805 41.3134 287.887 41.1873C287.986 41.036 288.082 40.8875 288.184 40.739C288.242 40.6522 288.298 40.5653 288.359 40.484C288.414 40.4056 288.467 40.3271 288.522 40.2487C288.583 40.1646 288.645 40.0833 288.706 39.9965C288.805 39.8648 288.901 39.7303 289.009 39.5986C289.09 39.4921 289.178 39.3828 289.265 39.2763C290.835 37.3205 292.776 35.6449 294.975 34.3447C296.505 33.4369 298.157 32.7112 299.908 32.1984C301.883 31.6156 303.983 31.3045 306.157 31.3045H318.259C320.619 31.3045 322.917 31.0579 325.134 30.5844C331.64 29.203 337.397 25.905 341.729 21.332C344.52 18.3871 346.722 14.9069 348.144 11.0765C349.31 7.95506 349.962 4.60101 350 1.10126H306.133ZM336.735 11.0765C333.041 17.2074 326.137 21.332 318.239 21.332H306.133C298.798 21.332 292.039 23.7306 286.661 27.7515C286.069 28.1914 285.495 28.6538 284.939 29.1329C285.128 27.6114 285.492 26.1404 286.011 24.7421C286.328 23.8847 286.704 23.0525 287.133 22.2511C287.299 21.9401 287.473 21.6347 287.654 21.332C287.66 21.332 287.66 21.332 287.66 21.332C288.589 19.7797 289.728 18.3591 291.045 17.0925C294.911 13.3742 300.254 11.0765 306.157 11.0765H336.738C336.738 11.0765 336.735 11.0765 336.735 11.0793" fill="#82D875"/>
<path d="M306.131 21.3489C306.02 21.3489 305.906 21.3489 305.793 21.3517C302.16 21.3881 298.672 22.0102 295.427 23.131C290.966 24.6637 286.969 27.1351 283.686 30.2874C283.345 30.6209 283.007 30.9571 282.681 31.3074C279.837 34.3 277.609 37.8418 276.181 41.7534C276.117 41.9327 276.05 42.1093 275.989 42.2914C275.147 44.7488 274.617 47.3379 274.454 50.0251C274.442 50.2044 274.433 50.3809 274.424 50.5574C274.416 50.6835 274.413 50.8124 274.407 50.9413C274.407 51.031 274.404 51.1179 274.398 51.2103C274.398 51.3 274.398 51.3897 274.395 51.4821V69.3732C274.433 69.3732 274.468 69.3732 274.506 69.3704C280.21 69.3003 284.764 64.7722 284.764 59.2914V51.9024C284.764 51.7819 284.764 51.6587 284.767 51.541C284.831 47.9123 285.871 44.5078 287.654 41.5713C287.727 41.4424 287.805 41.3163 287.887 41.1902C287.986 41.0361 288.082 40.8876 288.184 40.7391C288.243 40.6522 288.298 40.5681 288.359 40.4841C288.411 40.4056 288.464 40.3272 288.522 40.2487C288.583 40.1675 288.645 40.0834 288.706 39.9965C288.802 39.8648 288.901 39.7303 289.006 39.5958C289.087 39.4894 289.178 39.3801 289.262 39.2736C289.387 39.1195 289.519 38.9682 289.647 38.8169C289.728 38.7244 289.807 38.6291 289.889 38.5367C289.929 38.489 289.976 38.4386 290.02 38.3882C290.034 38.3713 290.049 38.3573 290.063 38.3405C290.372 38.0043 290.687 37.6736 291.016 37.3598C292.202 36.2194 293.516 35.2162 294.946 34.3812C294.946 34.3756 294.949 34.3756 294.949 34.3756L294.952 34.3728C294.955 34.356 294.964 34.3504 294.969 34.3364C295.581 33.294 296.251 32.2769 296.977 31.2962C297.787 30.1866 298.675 29.1246 299.625 28.1074C300.473 27.2024 301.356 26.3478 302.253 25.5604C304.056 23.9828 305.988 22.5902 308.036 21.3965C307.41 21.3601 306.769 21.3405 306.125 21.3405" fill="#82D875"/>
</g>
<defs>
<clipPath id="clip0_7_2226">
<rect width="350" height="87.0036" fill="white"/>
</clipPath>
</defs>
</svg>
